<svg width="64" height="64" viewBox="12 2 40 40" fill="none" xmlns="http://www.w3.org/2000/svg">
  <rect x="12" y="2" width="40" height="40" rx="12" fill="#FF6B35"/>
  <path d="M31.9999 22.9722C31.9999 22.9722 31.7609 22.9722 31.2829 22.9722C30.8049 22.9722 30.2378 22.6441 29.5815 21.9879C28.9253 21.3316 28.5972 20.5255 28.5972 19.5695C28.5972 18.6134 28.9253 17.8073 29.5815 17.151C30.2378 16.4948 31.0439 16.1667 31.9999 16.1667C32.956 16.1667 33.7621 16.4948 34.4183 17.151C35.0746 17.8073 35.4027 18.6134 35.4027 19.5695C35.4027 20.5255 35.0746 21.3316 34.4183 21.9879C33.7621 22.6441 32.956 22.9722 31.9999 22.9722ZM31.9999 21.0278C31.9999 21.0278 32.1053 21.0278 32.3159 21.0278C32.5266 21.0278 32.7696 20.8901 33.0451 20.6146C33.3205 20.3391 33.4583 19.9907 33.4583 19.5695C33.4583 19.1482 33.3205 18.7998 33.0451 18.5243C32.7696 18.2488 32.4212 18.1111 31.9999 18.1111C31.5786 18.1111 31.2303 18.2488 30.9548 18.5243C30.6793 18.7998 30.5416 19.1482 30.5416 19.5695C30.5416 19.9907 30.6793 20.3391 30.9548 20.6146C31.2303 20.8901 31.5786 21.0278 31.9999 21.0278ZM31.9999 31.7222C29.7476 31.1551 27.8883 29.8629 26.4218 27.8455C24.9554 25.8281 24.2222 23.588 24.2222 21.125V15.1945L31.9999 12.2778L39.7777 15.1945V21.125C39.7777 23.588 39.0445 25.8281 37.5781 27.8455C36.1116 29.8629 34.2523 31.1551 31.9999 31.7222ZM31.9999 14.3438L26.1666 16.5313V21.125C26.1666 22 26.2881 22.8507 26.5312 23.6771C26.7743 24.5035 27.1064 25.2813 27.5277 26.0104C28.2083 25.6701 28.9212 25.4028 29.6666 25.2083C30.412 25.0139 31.1898 24.9167 31.9999 24.9167C32.8101 24.9167 33.5879 25.0139 34.3333 25.2083C35.0786 25.4028 35.7916 25.6701 36.4722 26.0104C36.8935 25.2813 37.2256 24.5035 37.4687 23.6771C37.7118 22.8507 37.8333 22 37.8333 21.125V16.5313L31.9999 14.3438ZM31.9999 26.8611C31.9999 26.8611 31.8541 26.8611 31.5624 26.8611C31.2708 26.8611 30.8495 26.9259 30.2986 27.0556C29.7476 27.1852 29.221 27.3634 28.7187 27.5903C29.1886 28.0764 29.699 28.4977 30.2499 28.8542C30.8009 29.2107 31.3842 29.4861 31.9999 29.6806C32.6157 29.4861 33.199 29.2107 33.7499 28.8542C34.3009 28.4977 34.8113 28.0764 35.2812 27.5903C34.7789 27.3634 34.2523 27.1852 33.7013 27.0556C33.1504 26.9259 32.5833 26.8611 31.9999 26.8611Z" fill="white"/>
</svg>
