<svg width="40" height="40" viewBox="0 0 40 40" fill="none" xmlns="http://www.w3.org/2000/svg">
<rect width="40" height="40" rx="12" fill="#FEE2E2"/>
<path d="M21.9449 29.7222V26.7326L27.3164 21.3854C27.4622 21.2396 27.6243 21.1343 27.8025 21.0695C27.9808 21.0046 28.159 20.9722 28.3372 20.9722C28.5317 20.9722 28.718 21.0087 28.8963 21.0816C29.0745 21.1545 29.2365 21.2639 29.3824 21.4097L30.2817 22.309C30.4113 22.4549 30.5126 22.6169 30.5855 22.7951C30.6584 22.9734 30.6949 23.1516 30.6949 23.3299C30.6949 23.5081 30.6625 23.6904 30.5977 23.8767C30.5328 24.0631 30.4275 24.2292 30.2817 24.375L24.9345 29.7222H21.9449ZM23.4032 28.2639H24.3268L27.2678 25.2986L26.8303 24.8368L26.3685 24.3993L23.4032 27.3403V28.2639ZM14.1671 29.7222C13.6324 29.7222 13.1746 29.5318 12.7938 29.151C12.413 28.7703 12.2227 28.3125 12.2227 27.7778V12.2222C12.2227 11.6875 12.413 11.2298 12.7938 10.849C13.1746 10.4682 13.6324 10.2778 14.1671 10.2778H21.9449L27.7782 16.1111V19.0278H25.8338V17.0833H20.9727V12.2222H14.1671V27.7778H20.0004V29.7222H14.1671ZM26.8303 24.8368L26.3685 24.3993L27.2678 25.2986L26.8303 24.8368Z" fill="#FF6B35"/>
</svg>
