<svg width="25" height="28" viewBox="0 0 25 28" fill="none" xmlns="http://www.w3.org/2000/svg">
<path d="M13.9543 14.9722C13.1441 14.9722 12.4555 14.6887 11.8883 14.1215C11.3212 13.5544 11.0377 12.8657 11.0377 12.0556C11.0377 11.2454 11.3212 10.5567 11.8883 9.98958C12.4555 9.42245 13.1441 9.13889 13.9543 9.13889C14.7645 9.13889 15.4532 9.42245 16.0203 9.98958C16.5874 10.5567 16.871 11.2454 16.871 12.0556C16.871 12.8657 16.5874 13.5544 16.0203 14.1215C15.4532 14.6887 14.7645 14.9722 13.9543 14.9722ZM7.14876 17.8889C6.61404 17.8889 6.15629 17.6985 5.7755 17.3177C5.39471 16.9369 5.20432 16.4792 5.20432 15.9444V8.16667C5.20432 7.63194 5.39471 7.17419 5.7755 6.7934C6.15629 6.41262 6.61404 6.22222 7.14876 6.22222H20.7599C21.2946 6.22222 21.7524 6.41262 22.1331 6.7934C22.5139 7.17419 22.7043 7.63194 22.7043 8.16667V15.9444C22.7043 16.4792 22.5139 16.9369 22.1331 17.3177C21.7524 17.6985 21.2946 17.8889 20.7599 17.8889H7.14876ZM9.09321 15.9444H18.8154C18.8154 15.4097 19.0058 14.952 19.3866 14.5712C19.7674 14.1904 20.2252 14 20.7599 14V10.1111C20.2252 10.1111 19.7674 9.92072 19.3866 9.53993C19.0058 9.15914 18.8154 8.70139 18.8154 8.16667H9.09321C9.09321 8.70139 8.90281 9.15914 8.52203 9.53993C8.14124 9.92072 7.68349 10.1111 7.14876 10.1111V14C7.68349 14 8.14124 14.1904 8.52203 14.5712C8.90281 14.952 9.09321 15.4097 9.09321 15.9444ZM19.7877 21.7778H3.25987C2.72515 21.7778 2.2674 21.5874 1.88661 21.2066C1.50582 20.8258 1.31543 20.3681 1.31543 19.8333V9.13889H3.25987V19.8333H19.7877V21.7778Z" fill="#9CA3AF"/>
</svg>
