<svg width="25" height="28" viewBox="0 0 25 28" fill="none" xmlns="http://www.w3.org/2000/svg">
<path d="M12.0342 6.68403C13.7518 6.68403 15.3722 7.05267 16.8953 7.78993C18.4185 8.5272 19.6905 9.5926 20.7113 10.9861C20.8247 11.1319 20.8612 11.2616 20.8207 11.375C20.7802 11.4884 20.7113 11.5857 20.6141 11.6667C20.5168 11.7477 20.4034 11.7841 20.2738 11.776C20.1442 11.7679 20.0307 11.6991 19.9335 11.5694C19.0423 10.3056 17.8959 9.33739 16.4943 8.66493C15.0927 7.99248 13.606 7.65625 12.0342 7.65625C10.4624 7.65625 8.98791 7.99248 7.61059 8.66493C6.23328 9.33739 5.09091 10.3056 4.18351 11.5694C4.08628 11.7153 3.97286 11.7963 3.84323 11.8125C3.7136 11.8287 3.60017 11.7963 3.50295 11.7153C3.38953 11.6343 3.32066 11.533 3.29635 11.4115C3.27205 11.2899 3.30851 11.1644 3.40573 11.0347C4.41036 9.65741 5.6702 8.58797 7.18524 7.82639C8.70029 7.06482 10.3166 6.68403 12.0342 6.68403ZM12.0342 8.96875C14.2217 8.96875 16.1013 9.69792 17.6731 11.1563C19.2448 12.6146 20.0307 14.4213 20.0307 16.5764C20.0307 17.3866 19.7431 18.0631 19.1679 18.6059C18.5927 19.1487 17.8918 19.4201 17.0655 19.4201C16.2391 19.4201 15.5302 19.1487 14.9387 18.6059C14.3473 18.0631 14.0516 17.3866 14.0516 16.5764C14.0516 16.0417 13.8531 15.592 13.4561 15.2274C13.0591 14.8628 12.5851 14.6806 12.0342 14.6806C11.4833 14.6806 11.0093 14.8628 10.6123 15.2274C10.2153 15.592 10.0168 16.0417 10.0168 16.5764C10.0168 18.1481 10.4827 19.4606 11.4144 20.5139C12.3461 21.5671 13.5492 22.3044 15.0238 22.7257C15.1696 22.7743 15.2668 22.8553 15.3155 22.9688C15.3641 23.0822 15.3722 23.2037 15.3398 23.3333C15.3073 23.4468 15.2425 23.544 15.1453 23.625C15.0481 23.706 14.9266 23.7303 14.7807 23.6979C13.0955 23.2766 11.7182 22.4381 10.6488 21.1823C9.57934 19.9265 9.04462 18.3912 9.04462 16.5764C9.04462 15.7662 9.33628 15.0857 9.91962 14.5347C10.503 13.9838 11.2078 13.7083 12.0342 13.7083C12.8606 13.7083 13.5655 13.9838 14.1488 14.5347C14.7321 15.0857 15.0238 15.7662 15.0238 16.5764C15.0238 17.1111 15.2263 17.5608 15.6314 17.9253C16.0365 18.2899 16.5145 18.4722 17.0655 18.4722C17.6164 18.4722 18.0863 18.2899 18.4752 17.9253C18.8641 17.5608 19.0585 17.1111 19.0585 16.5764C19.0585 14.6968 18.3698 13.1169 16.9925 11.8368C15.6152 10.5567 13.9705 9.91667 12.0585 9.91667C10.1465 9.91667 8.50179 10.5567 7.12448 11.8368C5.74716 13.1169 5.05851 14.6887 5.05851 16.5521C5.05851 16.941 5.09497 17.4271 5.16788 18.0104C5.2408 18.5938 5.41499 19.2743 5.69045 20.0521C5.73906 20.1979 5.73501 20.3275 5.6783 20.441C5.62159 20.5544 5.52841 20.6354 5.39878 20.684C5.26916 20.7326 5.14358 20.7286 5.02205 20.6719C4.90052 20.6152 4.81545 20.522 4.76684 20.3924C4.52378 19.7604 4.34959 19.1325 4.24427 18.5087C4.13895 17.8848 4.08628 17.2407 4.08628 16.5764C4.08628 14.4213 4.86811 12.6146 6.43177 11.1563C7.99543 9.69792 9.86291 8.96875 12.0342 8.96875ZM12.0342 4.30209C13.0712 4.30209 14.084 4.42767 15.0724 4.67882C16.0608 4.92998 17.0168 5.29051 17.9405 5.76042C18.0863 5.84144 18.1714 5.93866 18.1957 6.05209C18.22 6.16551 18.2078 6.27894 18.1592 6.39236C18.1106 6.50579 18.0296 6.59491 17.9161 6.65973C17.8027 6.72454 17.665 6.71644 17.503 6.63542C16.6442 6.19792 15.757 5.86169 14.8415 5.62674C13.926 5.39178 12.9902 5.27431 12.0342 5.27431C11.0944 5.27431 10.1708 5.38368 9.26337 5.60243C8.35596 5.82118 7.48906 6.16551 6.66267 6.63542C6.53304 6.71644 6.40341 6.73669 6.27378 6.69618C6.14416 6.65567 6.04693 6.5706 5.98212 6.44098C5.9173 6.31135 5.9011 6.19387 5.93351 6.08854C5.96591 5.98322 6.04693 5.89005 6.17656 5.80903C7.08397 5.32292 8.03189 4.95024 9.02031 4.69098C10.0087 4.43172 11.0134 4.30209 12.0342 4.30209ZM12.0342 11.3264C13.5411 11.3264 14.8374 11.8328 15.9231 12.8455C17.0087 13.8582 17.5516 15.1019 17.5516 16.5764C17.5516 16.7222 17.507 16.8397 17.4179 16.9288C17.3288 17.0179 17.2113 17.0625 17.0655 17.0625C16.9358 17.0625 16.8224 17.0179 16.7252 16.9288C16.628 16.8397 16.5793 16.7222 16.5793 16.5764C16.5793 15.3611 16.1297 14.3443 15.2304 13.526C14.3311 12.7078 13.2657 12.2986 12.0342 12.2986C10.8027 12.2986 9.74543 12.7078 8.86233 13.526C7.97922 14.3443 7.53767 15.3611 7.53767 16.5764C7.53767 17.8889 7.76453 19.0029 8.21823 19.9184C8.67193 20.8339 9.33628 21.7535 10.2113 22.6771C10.3085 22.7743 10.3571 22.8877 10.3571 23.0174C10.3571 23.147 10.3085 23.2604 10.2113 23.3576C10.1141 23.4549 10.0006 23.5035 9.87101 23.5035C9.74138 23.5035 9.62795 23.4549 9.53073 23.3576C8.57471 22.353 7.84149 21.3281 7.33108 20.283C6.82066 19.2378 6.56545 18.0023 6.56545 16.5764C6.56545 15.1019 7.10017 13.8582 8.16962 12.8455C9.23906 11.8328 10.5273 11.3264 12.0342 11.3264ZM12.0099 16.0903C12.1557 16.0903 12.2732 16.1389 12.3623 16.2361C12.4514 16.3333 12.496 16.4468 12.496 16.5764C12.496 17.7917 12.9335 18.7882 13.8085 19.566C14.6835 20.3438 15.7043 20.7326 16.871 20.7326C16.9682 20.7326 17.106 20.7245 17.2842 20.7083C17.4624 20.6921 17.6488 20.6678 17.8432 20.6354C17.9891 20.603 18.1146 20.6233 18.22 20.6962C18.3253 20.7691 18.3942 20.8785 18.4266 21.0243C18.459 21.1539 18.4347 21.2674 18.3536 21.3646C18.2726 21.4618 18.1673 21.5266 18.0377 21.559C17.746 21.64 17.4908 21.6846 17.272 21.6927C17.0533 21.7008 16.9196 21.7049 16.871 21.7049C15.4289 21.7049 14.1771 21.2188 13.1158 20.2465C12.0545 19.2743 11.5238 18.0509 11.5238 16.5764C11.5238 16.4468 11.5683 16.3333 11.6575 16.2361C11.7466 16.1389 11.8641 16.0903 12.0099 16.0903Z" fill="#9CA3AF"/>
</svg>
