<svg width="18" height="22" viewBox="0 0 18 22" fill="none" xmlns="http://www.w3.org/2000/svg">
<path d="M9 18.5C7.9625 18.5 6.9875 18.3031 6.075 17.9094C5.1625 17.5156 4.36875 16.9812 3.69375 16.3062C3.01875 15.6312 2.48438 14.8375 2.09063 13.925C1.69688 13.0125 1.5 12.0375 1.5 11C1.5 9.9625 1.69688 8.9875 2.09063 8.075C2.48438 7.1625 3.01875 6.36875 3.69375 5.69375C4.36875 5.01875 5.1625 4.48437 6.075 4.09062C6.9875 3.69687 7.9625 3.5 9 3.5C10.0375 3.5 11.0125 3.69687 11.925 4.09062C12.8375 4.48437 13.6313 5.01875 14.3063 5.69375C14.9813 6.36875 15.5156 7.1625 15.9094 8.075C16.3031 8.9875 16.5 9.9625 16.5 11V12.0875C16.5 12.825 16.2469 13.4531 15.7406 13.9719C15.2344 14.4906 14.6125 14.75 13.875 14.75C13.4375 14.75 13.025 14.6562 12.6375 14.4688C12.25 14.2812 11.925 14.0125 11.6625 13.6625C11.3 14.025 10.8906 14.2969 10.4344 14.4781C9.97813 14.6594 9.5 14.75 9 14.75C7.9625 14.75 7.07812 14.3844 6.34688 13.6531C5.61563 12.9219 5.25 12.0375 5.25 11C5.25 9.9625 5.61563 9.07812 6.34688 8.34687C7.07812 7.61562 7.9625 7.25 9 7.25C10.0375 7.25 10.9219 7.61562 11.6531 8.34687C12.3844 9.07812 12.75 9.9625 12.75 11V12.0875C12.75 12.4125 12.8563 12.6875 13.0688 12.9125C13.2812 13.1375 13.55 13.25 13.875 13.25C14.2 13.25 14.4688 13.1375 14.6813 12.9125C14.8938 12.6875 15 12.4125 15 12.0875V11C15 9.325 14.4188 7.90625 13.2563 6.74375C12.0938 5.58125 10.675 5 9 5C7.325 5 5.90625 5.58125 4.74375 6.74375C3.58125 7.90625 3 9.325 3 11C3 12.675 3.58125 14.0938 4.74375 15.2562C5.90625 16.4187 7.325 17 9 17H12.75V18.5H9ZM9 13.25C9 13.25 9.15625 13.25 9.46875 13.25C9.78125 13.25 10.1562 13.0312 10.5938 12.5938C11.0312 12.1562 11.25 11.625 11.25 11C11.25 10.375 11.0312 9.84375 10.5938 9.40625C10.1562 8.96875 9.625 8.75 9 8.75C8.375 8.75 7.84375 8.96875 7.40625 9.40625C6.96875 9.84375 6.75 10.375 6.75 11C6.75 11.625 6.96875 12.1562 7.40625 12.5938C7.84375 13.0312 8.375 13.25 9 13.25Z" fill="#FF6B35"/>
</svg>
