<svg width="18" height="28" viewBox="0 0 18 28" fill="none" xmlns="http://www.w3.org/2000/svg">
<path d="M9 20C9 20 9.23438 20 9.70312 20C10.1719 20 10.7344 19.6719 11.3906 19.0156C12.0469 18.3594 12.375 17.5625 12.375 16.625C12.375 15.6875 12.0469 14.8906 11.3906 14.2344C10.7344 13.5781 9.9375 13.25 9 13.25C8.0625 13.25 7.26562 13.5781 6.60938 14.2344C5.95312 14.8906 5.625 15.6875 5.625 16.625C5.625 17.5625 5.95312 18.3594 6.60938 19.0156C7.26562 19.6719 8.0625 20 9 20ZM6.80625 12.275C7.05625 12.1375 7.32188 12.0281 7.60313 11.9469C7.88438 11.8656 8.16875 11.8125 8.45625 11.7875L6.5625 8H4.6875L6.80625 12.275ZM11.1938 12.275L13.3313 8H11.4375L9.84375 11.1875L10.2 11.9C10.375 11.95 10.5438 12.0031 10.7063 12.0594C10.8688 12.1156 11.0312 12.1875 11.1938 12.275ZM4.8 19.1C4.5875 18.7375 4.42188 18.3469 4.30313 17.9281C4.18438 17.5094 4.125 17.075 4.125 16.625C4.125 16.175 4.18438 15.7406 4.30313 15.3219C4.42188 14.9031 4.5875 14.5125 4.8 14.15C4.275 14.325 3.84375 14.6344 3.50625 15.0781C3.16875 15.5219 3 16.0375 3 16.625C3 17.2125 3.16875 17.7281 3.50625 18.1719C3.84375 18.6156 4.275 18.925 4.8 19.1ZM13.2 19.1C13.725 18.925 14.1563 18.6156 14.4938 18.1719C14.8313 17.7281 15 17.2125 15 16.625C15 16.0375 14.8313 15.5219 14.4938 15.0781C14.1563 14.6344 13.725 14.325 13.2 14.15C13.4125 14.5125 13.5781 14.9031 13.6969 15.3219C13.8156 15.7406 13.875 16.175 13.875 16.625C13.875 17.075 13.8156 17.5094 13.6969 17.9281C13.5781 18.3469 13.4125 18.7375 13.2 19.1ZM9 21.5C9 21.5 8.875 21.5 8.625 21.5C8.375 21.5 8.02188 21.4281 7.56563 21.2844C7.10938 21.1406 6.6875 20.9437 6.3 20.6937C6.1875 20.7187 6.075 20.7344 5.9625 20.7406C5.85 20.7469 5.73125 20.75 5.60625 20.75C4.46875 20.75 3.5 20.35 2.7 19.55C1.9 18.75 1.5 17.7812 1.5 16.6437C1.5 15.5562 1.8625 14.625 2.5875 13.85C3.3125 13.075 4.20625 12.6437 5.26875 12.5562L2.25 6.5H7.5L9 9.5L10.5 6.5H15.75L12.75 12.5187C13.8125 12.6187 14.7031 13.0562 15.4219 13.8312C16.1406 14.6062 16.5 15.5375 16.5 16.625C16.5 17.775 16.1 18.75 15.3 19.55C14.5 20.35 13.525 20.75 12.375 20.75C12.2625 20.75 12.1469 20.7469 12.0281 20.7406C11.9094 20.7344 11.7938 20.7187 11.6813 20.6937C11.2938 20.9437 10.875 21.1406 10.425 21.2844C9.975 21.4281 9.5 21.5 9 21.5ZM7.6125 18.6875L8.1375 16.9812L6.75 15.9875H8.45625L9 14.1875L9.54375 15.9875H11.25L9.8625 16.9812L10.3875 18.6875L9 17.6375L7.6125 18.6875Z" fill="#FF6B35"/>
</svg>
