<svg width="25" height="28" viewBox="0 0 25 28" fill="none" xmlns="http://www.w3.org/2000/svg">
<path d="M5.20421 20.8056V7.19444C5.20421 7.19444 5.20421 7.55498 5.20421 8.27604C5.20421 8.99711 5.20421 9.93287 5.20421 11.0833V16.9167C5.20421 18.0671 5.20421 19.0029 5.20421 19.724C5.20421 20.445 5.20421 20.8056 5.20421 20.8056ZM5.20421 22.75C4.66949 22.75 4.21173 22.5596 3.83095 22.1788C3.45016 21.798 3.25977 21.3403 3.25977 20.8056V7.19444C3.25977 6.65972 3.45016 6.20197 3.83095 5.82118C4.21173 5.44039 4.66949 5.25 5.20421 5.25H18.8153C19.35 5.25 19.8078 5.44039 20.1886 5.82118C20.5694 6.20197 20.7598 6.65972 20.7598 7.19444V9.625H18.8153V7.19444H5.20421V20.8056H18.8153V18.375H20.7598V20.8056C20.7598 21.3403 20.5694 21.798 20.1886 22.1788C19.8078 22.5596 19.35 22.75 18.8153 22.75H5.20421ZM12.982 18.8611C12.4473 18.8611 11.9895 18.6707 11.6087 18.2899C11.2279 17.9091 11.0375 17.4514 11.0375 16.9167V11.0833C11.0375 10.5486 11.2279 10.0909 11.6087 9.71007C11.9895 9.32928 12.4473 9.13889 12.982 9.13889H19.7875C20.3223 9.13889 20.78 9.32928 21.1608 9.71007C21.5416 10.0909 21.732 10.5486 21.732 11.0833V16.9167C21.732 17.4514 21.5416 17.9091 21.1608 18.2899C20.78 18.6707 20.3223 18.8611 19.7875 18.8611H12.982ZM19.7875 16.9167V11.0833H12.982V16.9167H19.7875ZM15.8987 15.4583C15.8987 15.4583 15.9999 15.4583 16.2025 15.4583C16.405 15.4583 16.6481 15.3166 16.9316 15.033C17.2152 14.7494 17.357 14.4051 17.357 14C17.357 13.5949 17.2152 13.2506 16.9316 12.967C16.6481 12.6834 16.3037 12.5417 15.8987 12.5417C15.4936 12.5417 15.1492 12.6834 14.8657 12.967C14.5821 13.2506 14.4403 13.5949 14.4403 14C14.4403 14.4051 14.5821 14.7494 14.8657 15.033C15.1492 15.3166 15.4936 15.4583 15.8987 15.4583Z" fill="#9CA3AF"/>
</svg>
