<svg width="40" height="40" viewBox="0 0 40 40" fill="none" xmlns="http://www.w3.org/2000/svg">
<rect width="40" height="40" rx="12" fill="#FEE2E2"/>
<path d="M20 30.6944L17.0833 27.7778H13.1944C12.6597 27.7778 12.202 27.5874 11.8212 27.2066C11.4404 26.8258 11.25 26.3681 11.25 25.8333V12.2222C11.25 11.6875 11.4404 11.2297 11.8212 10.849C12.202 10.4682 12.6597 10.2778 13.1944 10.2778H26.8056C27.3403 10.2778 27.798 10.4682 28.1788 10.849C28.5596 11.2297 28.75 11.6875 28.75 12.2222V25.8333C28.75 26.3681 28.5596 26.8258 28.1788 27.2066C27.798 27.5874 27.3403 27.7778 26.8056 27.7778H22.9167L20 30.6944ZM13.1944 24.7153C14.0694 23.8565 15.0862 23.18 16.2448 22.6858C17.4034 22.1915 18.6551 21.9444 20 21.9444C21.3449 21.9444 22.5966 22.1915 23.7552 22.6858C24.9138 23.18 25.9306 23.8565 26.8056 24.7153V12.2222H13.1944V24.7153ZM20 20C20 20 20.235 20 20.7049 20C21.1748 20 21.7419 19.6678 22.4062 19.0035C23.0706 18.3391 23.4028 17.537 23.4028 16.5972C23.4028 15.6574 23.0706 14.8553 22.4062 14.191C21.7419 13.5266 20.9398 13.1944 20 13.1944C19.0602 13.1944 18.2581 13.5266 17.5938 14.191C16.9294 14.8553 16.5972 15.6574 16.5972 16.5972C16.5972 17.537 16.9294 18.3391 17.5938 19.0035C18.2581 19.6678 19.0602 20 20 20ZM15.1389 25.8333H24.8611C24.8611 25.7847 24.8611 25.7442 24.8611 25.7118C24.8611 25.6794 24.8611 25.6389 24.8611 25.5903C24.1806 25.0231 23.4271 24.5978 22.6007 24.3142C21.7743 24.0307 20.9074 23.8889 20 23.8889C19.0926 23.8889 18.2257 24.0307 17.3993 24.3142C16.5729 24.5978 15.8194 25.0231 15.1389 25.5903C15.1389 25.6389 15.1389 25.6794 15.1389 25.7118C15.1389 25.7442 15.1389 25.7847 15.1389 25.8333ZM20 18.0556C20 18.0556 19.8987 18.0556 19.6962 18.0556C19.4936 18.0556 19.2506 17.9138 18.967 17.6302C18.6834 17.3466 18.5417 17.0023 18.5417 16.5972C18.5417 16.1921 18.6834 15.8478 18.967 15.5642C19.2506 15.2807 19.5949 15.1389 20 15.1389C20.4051 15.1389 20.7494 15.2807 21.033 15.5642C21.3166 15.8478 21.4583 16.1921 21.4583 16.5972C21.4583 17.0023 21.3166 17.3466 21.033 17.6302C20.7494 17.9138 20.4051 18.0556 20 18.0556Z" fill="#FF6B35"/>
</svg>
