<svg width="25" height="28" viewBox="0 0 25 28" fill="none" xmlns="http://www.w3.org/2000/svg">
<path d="M9.74978 15.6528L10.6005 12.882L8.36437 11.0833H11.1352L12.0102 8.36112L12.8852 11.0833H15.656L13.3956 12.882L14.2463 15.6528L12.0102 13.9271L9.74978 15.6528ZM6.17687 24.6945V17.184C5.56113 16.5035 5.08312 15.7257 4.74284 14.8507C4.40256 13.9757 4.23242 13.044 4.23242 12.0556C4.23242 9.88427 4.98589 8.04515 6.49284 6.53821C7.99978 5.03126 9.8389 4.27779 12.0102 4.27779C14.1815 4.27779 16.0206 5.03126 17.5276 6.53821C19.0345 8.04515 19.788 9.88427 19.788 12.0556C19.788 13.044 19.6178 13.9757 19.2776 14.8507C18.9373 15.7257 18.4593 16.5035 17.8435 17.184V24.6945L12.0102 22.75L6.17687 24.6945ZM12.0102 17.8889C12.0102 17.8889 12.4153 17.8889 13.2255 17.8889C14.0357 17.8889 15.0079 17.3218 16.1421 16.1875C17.2764 15.0533 17.8435 13.6759 17.8435 12.0556C17.8435 10.4352 17.2764 9.05788 16.1421 7.92362C15.0079 6.78936 13.6306 6.22223 12.0102 6.22223C10.3898 6.22223 9.01251 6.78936 7.87826 7.92362C6.744 9.05788 6.17687 10.4352 6.17687 12.0556C6.17687 13.6759 6.744 15.0533 7.87826 16.1875C9.01251 17.3218 10.3898 17.8889 12.0102 17.8889ZM8.12131 21.8021L12.0102 20.8056L15.8991 21.8021V18.7882C15.332 19.1123 14.7203 19.3675 14.064 19.5538C13.4078 19.7402 12.7232 19.8333 12.0102 19.8333C11.2972 19.8333 10.6126 19.7402 9.95638 19.5538C9.30013 19.3675 8.68844 19.1123 8.12131 18.7882V21.8021Z" fill="#FB923C"/>
</svg>
