<svg width="25" height="28" viewBox="0 0 25 28" fill="none" xmlns="http://www.w3.org/2000/svg">
<path d="M8.12088 18.8611C8.12088 18.8611 8.18974 18.8611 8.32747 18.8611C8.46521 18.8611 8.62724 18.7679 8.81359 18.5816C8.99993 18.3953 9.0931 18.1644 9.0931 17.8889C9.0931 17.6134 8.99993 17.3825 8.81359 17.1962C8.62724 17.0098 8.39634 16.9167 8.12088 16.9167C7.84541 16.9167 7.61451 17.0098 7.42817 17.1962C7.24183 17.3825 7.14865 17.6134 7.14865 17.8889C7.14865 18.1644 7.24183 18.3953 7.42817 18.5816C7.61451 18.7679 7.84541 18.8611 8.12088 18.8611ZM8.12088 14.9722C8.12088 14.9722 8.18974 14.9722 8.32747 14.9722C8.46521 14.9722 8.62724 14.8791 8.81359 14.6927C8.99993 14.5064 9.0931 14.2755 9.0931 14C9.0931 13.7245 8.99993 13.4936 8.81359 13.3073C8.62724 13.1209 8.39634 13.0278 8.12088 13.0278C7.84541 13.0278 7.61451 13.1209 7.42817 13.3073C7.24183 13.4936 7.14865 13.7245 7.14865 14C7.14865 14.2755 7.24183 14.5064 7.42817 14.6927C7.61451 14.8791 7.84541 14.9722 8.12088 14.9722ZM8.12088 11.0833C8.12088 11.0833 8.18974 11.0833 8.32747 11.0833C8.46521 11.0833 8.62724 10.9902 8.81359 10.8038C8.99993 10.6175 9.0931 10.3866 9.0931 10.1111C9.0931 9.83565 8.99993 9.60474 8.81359 9.4184C8.62724 9.23206 8.39634 9.13889 8.12088 9.13889C7.84541 9.13889 7.61451 9.23206 7.42817 9.4184C7.24183 9.60474 7.14865 9.83565 7.14865 10.1111C7.14865 10.3866 7.24183 10.6175 7.42817 10.8038C7.61451 10.9902 7.84541 11.0833 8.12088 11.0833ZM11.0375 18.8611H16.8709V16.9167H11.0375V18.8611ZM11.0375 14.9722H16.8709V13.0278H11.0375V14.9722ZM11.0375 11.0833H16.8709V9.13889H11.0375V11.0833ZM5.20421 22.75C4.66949 22.75 4.21173 22.5596 3.83095 22.1788C3.45016 21.798 3.25977 21.3403 3.25977 20.8056V7.19444C3.25977 6.65972 3.45016 6.20197 3.83095 5.82118C4.21173 5.44039 4.66949 5.25 5.20421 5.25H18.8153C19.35 5.25 19.8078 5.44039 20.1886 5.82118C20.5694 6.20197 20.7598 6.65972 20.7598 7.19444V20.8056C20.7598 21.3403 20.5694 21.798 20.1886 22.1788C19.8078 22.5596 19.35 22.75 18.8153 22.75H5.20421ZM5.20421 20.8056H18.8153V7.19444H5.20421V20.8056Z" fill="#E74C3C"/>
</svg>
