<svg width="15" height="20" viewBox="0 0 15 20" fill="none" xmlns="http://www.w3.org/2000/svg">
<path d="M3.12088 13.8889H3.91254L9.3431 8.45833L8.55143 7.66667L3.12088 13.0972V13.8889ZM2.00977 15V12.6389L9.3431 5.31944C9.45421 5.21759 9.5769 5.13889 9.71115 5.08333C9.84541 5.02778 9.98662 5 10.1348 5C10.2829 5 10.4264 5.02778 10.5653 5.08333C10.7042 5.13889 10.8246 5.22222 10.9264 5.33333L11.6903 6.11111C11.8014 6.21296 11.8825 6.33333 11.9334 6.47222C11.9843 6.61111 12.0098 6.75 12.0098 6.88889C12.0098 7.03704 11.9843 7.17824 11.9334 7.3125C11.8825 7.44676 11.8014 7.56944 11.6903 7.68056L4.37088 15H2.00977ZM8.94032 8.06944L8.55143 7.66667L9.3431 8.45833L8.94032 8.06944Z" fill="#FF6B35"/>
</svg>
