<svg width="18" height="28" viewBox="0 0 18 28" fill="none" xmlns="http://www.w3.org/2000/svg">
<path d="M13.5 16.8125C13.5 18.1125 13.0438 19.2188 12.1313 20.1312C11.2188 21.0438 10.1125 21.5 8.8125 21.5C7.5125 21.5 6.40625 21.0438 5.49375 20.1312C4.58125 19.2188 4.125 18.1125 4.125 16.8125V9.875C4.125 8.9375 4.45312 8.14062 5.10938 7.48437C5.76563 6.82812 6.5625 6.5 7.5 6.5C8.4375 6.5 9.23438 6.82812 9.89062 7.48437C10.5469 8.14062 10.875 8.9375 10.875 9.875V16.4375C10.875 17.0125 10.675 17.5 10.275 17.9C9.875 18.3 9.3875 18.5 8.8125 18.5C8.2375 18.5 7.75 18.3 7.35 17.9C6.95 17.5 6.75 17.0125 6.75 16.4375V9.5H8.25V16.4375C8.25 16.6 8.30313 16.7344 8.40938 16.8406C8.51562 16.9469 8.65 17 8.8125 17C8.975 17 9.10938 16.9469 9.21563 16.8406C9.32188 16.7344 9.375 16.6 9.375 16.4375V9.875C9.3625 9.35 9.17813 8.90625 8.82188 8.54375C8.46563 8.18125 8.025 8 7.5 8C6.975 8 6.53125 8.18125 6.16875 8.54375C5.80625 8.90625 5.625 9.35 5.625 9.875V16.8125C5.6125 17.7 5.91875 18.4531 6.54375 19.0719C7.16875 19.6906 7.925 20 8.8125 20C9.6875 20 10.4313 19.6906 11.0438 19.0719C11.6563 18.4531 11.975 17.7 12 16.8125V9.5H13.5V16.8125Z" fill="#FF6B35"/>
</svg>
