<svg width="25" height="24" viewBox="0 0 25 24" fill="none" xmlns="http://www.w3.org/2000/svg">
<path d="M12.1702 10.87C12.0702 10.86 11.9501 10.86 11.84 10.87C9.45798 10.79 7.56641 8.84 7.56641 6.44C7.56641 3.99 9.54806 2 12.0101 2C14.4621 2 16.4538 3.99 16.4538 6.44C16.4438 8.84 14.5522 10.79 12.1702 10.87Z" stroke="#9CA3AF" stroke-width="1.5" stroke-linecap="round" stroke-linejoin="round"/>
<path d="M7.16612 14.56C4.74411 16.18 4.74411 18.82 7.16612 20.43C9.91841 22.27 14.4322 22.27 17.1845 20.43C19.6065 18.81 19.6065 16.17 17.1845 14.56C14.4422 12.73 9.92842 12.73 7.16612 14.56Z" stroke="#9CA3AF" stroke-width="1.5" stroke-linecap="round" stroke-linejoin="round"/>
</svg>
