<svg width="25" height="28" viewBox="0 0 25 28" fill="none" xmlns="http://www.w3.org/2000/svg">
<path d="M12.0102 23.7222C9.75788 23.1551 7.89851 21.8629 6.43207 19.8455C4.96564 17.8281 4.23242 15.588 4.23242 13.125V7.19445L12.0102 4.27778L19.788 7.19445V12.7118C19.4801 12.5822 19.1641 12.4647 18.8401 12.3594C18.516 12.2541 18.1838 12.1771 17.8435 12.1285V8.55556L12.0102 6.36806L6.17687 8.55556V13.125C6.17687 13.8866 6.27814 14.6482 6.48069 15.4097C6.68323 16.1713 6.9668 16.8964 7.33138 17.5851C7.69596 18.2737 8.13751 18.9097 8.65603 19.4931C9.17455 20.0764 9.74978 20.5625 10.3817 20.9514C10.56 21.4699 10.7949 21.9641 11.0866 22.434C11.3783 22.9039 11.7104 23.3252 12.0831 23.6979C12.0669 23.6979 12.0548 23.702 12.0467 23.7101C12.0386 23.7182 12.0264 23.7222 12.0102 23.7222ZM16.8713 23.7222C15.5264 23.7222 14.38 23.2483 13.4321 22.3004C12.4842 21.3524 12.0102 20.206 12.0102 18.8611C12.0102 17.5162 12.4842 16.3698 13.4321 15.4219C14.38 14.474 15.5264 14 16.8713 14C18.2162 14 19.3626 14.474 20.3105 15.4219C21.2585 16.3698 21.7324 17.5162 21.7324 18.8611C21.7324 20.206 21.2585 21.3524 20.3105 22.3004C19.3626 23.2483 18.2162 23.7222 16.8713 23.7222ZM16.3852 21.7778H17.3574V19.3472H19.788V18.375H17.3574V15.9445H16.3852V18.375H13.9546V19.3472H16.3852V21.7778Z" fill="white"/>
</svg>
