<svg width="18" height="22" viewBox="0 0 18 22" fill="none" xmlns="http://www.w3.org/2000/svg">
<path d="M9 14C10.275 12.85 11.0938 12.0406 11.4563 11.5719C11.8188 11.1031 12 10.6375 12 10.175C12 9.725 11.8375 9.3375 11.5125 9.0125C11.1875 8.6875 10.8 8.525 10.35 8.525C10.0875 8.525 9.83438 8.57812 9.59063 8.68437C9.34688 8.79062 9.15 8.9375 9 9.125C8.85 8.9375 8.65625 8.79062 8.41875 8.68437C8.18125 8.57812 7.925 8.525 7.65 8.525C7.2 8.525 6.8125 8.6875 6.4875 9.0125C6.1625 9.3375 6 9.725 6 10.175C6 10.4125 6.03125 10.6312 6.09375 10.8312C6.15625 11.0312 6.29375 11.2656 6.50625 11.5344C6.71875 11.8031 7.02188 12.1312 7.41563 12.5187C7.80938 12.9062 8.3375 13.4 9 14ZM9 18.5C7.2625 18.0625 5.82812 17.0656 4.69688 15.5094C3.56563 13.9531 3 12.225 3 10.325V5.75L9 3.5L15 5.75V10.325C15 12.225 14.4344 13.9531 13.3031 15.5094C12.1719 17.0656 10.7375 18.0625 9 18.5ZM9 16.925C10.3 16.5125 11.375 15.6875 12.225 14.45C13.075 13.2125 13.5 11.8375 13.5 10.325V6.78125L9 5.09375L4.5 6.78125V10.325C4.5 11.8375 4.925 13.2125 5.775 14.45C6.625 15.6875 7.7 16.5125 9 16.925Z" fill="white"/>
</svg>
