<svg width="25" height="28" viewBox="0 0 25 28" fill="none" xmlns="http://www.w3.org/2000/svg">
<path d="M15.8927 14.966L11.8596 11.0301C11.3575 10.5442 10.9324 10.0057 10.5841 9.41447C10.2359 8.82328 10.0618 8.17945 10.0618 7.48298C10.0618 6.59215 10.3736 5.83494 10.9972 5.21136C11.6207 4.58778 12.378 4.27598 13.2688 4.27598C13.7871 4.27598 14.273 4.38531 14.7265 4.60397C15.18 4.82263 15.5688 5.11823 15.8927 5.49076C16.2166 5.11823 16.6054 4.82263 17.0589 4.60397C17.5124 4.38531 17.9983 4.27598 18.5166 4.27598C19.4074 4.27598 20.1646 4.58778 20.7882 5.21136C21.4118 5.83494 21.7236 6.59215 21.7236 7.48298C21.7236 8.17945 21.5535 8.82328 21.2134 9.41447C20.8733 10.0057 20.4521 10.5442 19.95 11.0301L15.8927 14.966ZM15.8927 12.2449L18.5409 9.64528C18.8486 9.33753 19.1321 9.00955 19.3912 8.66131C19.6504 8.31308 19.78 7.9203 19.78 7.48298C19.78 7.12665 19.6585 6.82701 19.4155 6.58405C19.1726 6.3411 18.8729 6.21962 18.5166 6.21962C18.2898 6.21962 18.0752 6.26416 17.8728 6.35324C17.6703 6.44233 17.4962 6.57595 17.3504 6.75412L15.8927 8.50339L14.435 6.75412C14.2892 6.57595 14.1151 6.44233 13.9126 6.35324C13.7102 6.26416 13.4955 6.21962 13.2688 6.21962C12.9125 6.21962 12.6128 6.3411 12.3699 6.58405C12.1269 6.82701 12.0054 7.12665 12.0054 7.48298C12.0054 7.9203 12.135 8.31308 12.3941 8.66131C12.6533 9.00955 12.9367 9.33753 13.2445 9.64528L15.8927 12.2449ZM7.14633 20.311L13.9005 22.1574L19.6828 20.3596C19.6018 20.2138 19.4844 20.0883 19.3305 19.983C19.1766 19.8777 19.0025 19.8251 18.8081 19.8251H13.9005C13.4631 19.8251 13.1149 19.8089 12.8558 19.7765C12.5966 19.7441 12.3294 19.6793 12.054 19.5821L9.79454 18.829L10.329 16.9339L12.297 17.5899C12.5723 17.6709 12.8963 17.7357 13.2688 17.7842C13.6413 17.8328 14.192 17.8652 14.9209 17.8814C14.9209 17.7033 14.8682 17.5332 14.763 17.3712C14.6577 17.2093 14.5321 17.104 14.3864 17.0554L8.70124 14.966H7.14633V20.311ZM1.31543 23.7123V13.0223H8.70124C8.81462 13.0223 8.928 13.0345 9.04138 13.0588C9.15476 13.0831 9.26004 13.1114 9.35722 13.1438L15.0666 15.2575C15.6011 15.4519 16.0344 15.792 16.3665 16.2779C16.6985 16.7638 16.8645 17.2983 16.8645 17.8814H18.8081C19.618 17.8814 20.3064 18.1487 20.8733 18.6832C21.4401 19.2177 21.7236 19.9222 21.7236 20.7969V21.7687L13.9491 24.1982L7.14633 22.3032V23.7123H1.31543ZM3.25906 21.7687H5.2027V14.966H3.25906V21.7687Z" fill="#FF6B35"/>
</svg>
