<svg width="96" height="96" viewBox="0 0 96 96" fill="none" xmlns="http://www.w3.org/2000/svg">
<rect x="2" y="2" width="92" height="92" rx="46" fill="#FEF2F2"/>
<rect x="2" y="2" width="92" height="92" rx="46" stroke="#FEE2E2" stroke-width="4"/>
<path d="M48 56C48 56 48.1417 56 48.425 56C48.7083 56 49.0417 55.8083 49.425 55.425C49.8083 55.0417 50 54.5667 50 54C50 53.4333 49.8083 52.9583 49.425 52.575C49.0417 52.1917 48.5667 52 48 52C47.4333 52 46.9583 52.1917 46.575 52.575C46.1917 52.9583 46 53.4333 46 54C46 54.5667 46.1917 55.0417 46.575 55.425C46.9583 55.8083 47.4333 56 48 56ZM46 48H50V38H46V48ZM48 68C43.3667 66.8333 39.5417 64.175 36.525 60.025C33.5083 55.875 32 51.2667 32 46.2V34L48 28L64 34V46.2C64 51.2667 62.4917 55.875 59.475 60.025C56.4583 64.175 52.6333 66.8333 48 68ZM48 63.8C51.4667 62.7 54.3333 60.5 56.6 57.2C58.8667 53.9 60 50.2333 60 46.2V36.75L48 32.25L36 36.75V46.2C36 50.2333 37.1333 53.9 39.4 57.2C41.6667 60.5 44.5333 62.7 48 63.8Z" fill="#E74C3C"/>
</svg>
